HIERARCHY
ROOT simHips
{
  OFFSET 92.8241 99.6983 57.7259
  CHANNELS 6 Xposition Yposition Zposition Zrotation Xrotation Yrotation
  JOINT simSpine
  {
    OFFSET -0.000355721 21.3001 -0.016921
    CHANNELS 3 Zrotation Xrotation Yrotation
    JOINT simLeftArm
    {
      OFFSET 13.5181 21.3012 0
      CHANNELS 3 Zrotation Xrotation Yrotation
      JOINT simLeftForeArm
      {
        OFFSET 24.5783 0 0
        CHANNELS 3 Zrotation Xrotation Yrotation
        JOINT simLeftHand
        {
          OFFSET 24.5783 0 0
          CHANNELS 3 Zrotation Xrotation Yrotation
          End Site
          {
            OFFSET 7.32568 1.52588e-05 0.0169305
          }
        }
      }
    }
    JOINT simHead
    {
      OFFSET 0 27.4458 -0.00489235
      CHANNELS 3 Zrotation Xrotation Yrotation
      End Site
      {
        OFFSET 0 0 0
      }
    }
    JOINT simRightArm
    {
      OFFSET -13.5174 21.3012 0
      CHANNELS 3 Zrotation Xrotation Yrotation
      JOINT simRightForeArm
      {
        OFFSET -24.5783 0 0
        CHANNELS 3 Zrotation Xrotation Yrotation
        JOINT simRightHand
        {
          OFFSET -24.5783 0 0
          CHANNELS 3 Zrotation Xrotation Yrotation
          End Site
          {
            OFFSET -7.32568 1.52588e-05 0.0169305
          }
        }
      }
    }
  }
  JOINT simRightUpLeg
  {
    OFFSET -8.44614 -9.41038 0.835684
    CHANNELS 3 Zrotation Xrotation Yrotation
    JOINT simRightLeg
    {
      OFFSET 0 -40.9639 0
      CHANNELS 3 Zrotation Xrotation Yrotation
      JOINT simRightFoot
      {
        OFFSET 0 -40.9639 0
        CHANNELS 3 Zrotation Xrotation Yrotation
        End Site
        {
          OFFSET 0.50614 -9.67405 14.6709
        }
      }
    }
  }
  JOINT simLeftUpLeg
  {
    OFFSET 8.44614 -9.41038 0.835684
    CHANNELS 3 Zrotation Xrotation Yrotation
    JOINT simLeftLeg
    {
      OFFSET 0 -40.9639 0
      CHANNELS 3 Zrotation Xrotation Yrotation
      JOINT simLeftFoot
      {
        OFFSET 0 -40.9639 0
        CHANNELS 3 Zrotation Xrotation Yrotation
        End Site
        {
          OFFSET -0.50614 -9.67405 14.6709
        }
      }
    }
  }
}
MOTION
Frames:	17
Frame Time:	0.0333333
92.3684 99.7495 57.5431 0.00325732 0.266453 -0.795796 0.366943 0.585802 0.00338047 1.46396 7.15102 -2.3087 -4.78695 1.31776 0.000135233 -6.60146 4.48413 2.57307 -0.259809 -3.23658 0.00387005 -3.2071 0.655111 0.617786 4.73556 1.79173 -0.000159761 12.65 7.08746 -6.2069 0.751144 -0.357014 0.469855 -0.116678 0.0486442 -0.00342364 -0.349552 -0.0283507 0.361804 -1.20985 -0.759122 0.629847 0.0346825 2.8191 -0.0167461 1.05206 -2.34876 0.248861 
92.387 99.7495 57.5515 0.0030084 0.25849 -0.765143 0.369697 0.59531 -0.000193244 1.51243 6.64751 -2.42706 -4.85907 1.35396 0.000135235 -6.44632 4.81107 2.57427 -0.333564 -3.03953 -0.198613 -3.1469 0.51937 0.658034 4.72395 1.78605 -0.00015976 12.6056 7.16485 -6.147 0.723282 -0.360741 0.448918 -0.106851 0.0514478 -0.00342365 -0.342841 -0.0283508 0.352873 -1.22169 -0.759115 0.673519 0.0347595 2.82617 -0.0167462 1.09063 -2.32735 0.146775 
92.4013 99.7493 57.5648 -0.00461796 0.229105 -0.699157 0.376718 0.61052 -0.0352583 1.54307 6.82065 -2.39432 -4.82043 1.33454 0.000135234 -6.46535 4.58828 2.57344 -0.325502 -2.87368 -0.328031 -3.07531 0.485296 0.682353 4.68507 1.76677 -0.000159759 12.5685 7.22143 -6.11522 0.720847 -0.269434 0.38575 -0.102855 0.0133915 -0.00342364 -0.330631 -0.0401283 0.328753 -1.22065 -0.761213 0.663877 0.00997656 2.89134 -0.0167471 1.08048 -2.39365 0.105197 
92.3912 99.7497 57.5616 0.0178858 0.298303 -0.610285 0.308862 0.544826 -0.0828983 1.58999 6.67872 -2.38889 -4.83394 1.34132 0.000135235 -6.41399 4.47082 2.57303 -0.228591 -2.77656 -0.385092 -2.98177 0.57065 0.707783 4.67555 1.76209 -0.000159758 12.4925 7.08414 -6.07555 0.707242 -0.311213 0.345797 -0.105569 -0.0506218 -0.00342365 -0.372616 -0.000103992 0.276415 -1.23936 -0.823717 0.596067 0.0340077 2.87126 -0.0167468 1.05274 -2.35751 0.0719219 
92.4438 99.7497 57.5748 0.0158381 0.293848 -0.616733 0.357306 0.543303 -0.0320902 1.53546 6.6908 -2.38052 -4.81696 1.33453 0.000135234 -6.36688 4.49651 2.56755 -0.201764 -2.6635 -0.349632 -2.93323 0.448158 0.72014 4.66439 1.75689 -0.000159758 12.2463 7.18518 -6.17086 0.6662 -0.372221 0.322072 -0.0917825 0.0673367 -0.00342365 -0.355055 -0.0427474 0.303641 -1.26351 -0.849705 0.634844 -0.000504029 2.93171 -0.0167477 1.12415 -2.37211 0.051742 
92.4583 99.7498 57.592 0.0171449 0.304138 -0.548474 0.353971 0.518493 -0.0219606 1.50155 6.80748 -2.34201 -4.71145 1.29192 0.000135232 -6.44922 4.37231 2.62608 -0.145327 -2.53216 -0.364116 -2.82692 0.513921 0.645345 4.57677 1.71545 -0.000159754 12.1344 7.15934 -6.11134 0.661627 -0.34315 0.267615 -0.091799 0.0521915 -0.00342365 -0.321847 -0.0463427 0.288981 -1.26835 -0.836731 0.682755 0.0114302 2.88761 -0.0167471 1.13019 -2.34432 -0.070152 
92.4819 99.7464 57.6131 0.0199503 0.306538 -0.499984 0.347289 0.466962 0.00706482 1.48319 6.58315 -2.39919 -4.68881 1.28284 0.000135232 -6.49976 4.321 2.45441 -0.118662 -2.33769 -0.354626 -2.72878 0.465506 0.651208 4.56695 1.71086 -0.000159754 11.8922 7.17436 -5.92151 0.636834 -0.274424 0.248705 -0.0807798 -0.0565945 -0.00342365 -0.330348 0.0111718 0.268784 -1.30091 -0.839635 0.668136 0.0329623 2.91422 -0.0167474 1.17801 -2.35721 -0.101402 
92.4995 99.7367 57.6416 0.0217629 0.263981 -0.3988 0.334989 0.425864 -0.0458018 1.4166 6.69809 -2.38315 -4.58077 1.24019 0.000135229 -6.54245 4.04218 2.51329 -0.116281 -2.11851 -0.340543 -2.58221 0.530267 0.672365 4.49363 1.67653 -0.000159751 11.4075 7.21992 -6.03648 0.61609 -0.230411 0.16927 -0.0752124 -0.0271578 -0.00342364 -0.363281 -0.0425724 0.23528 -1.31069 -0.780303 0.593986 0.00494175 2.90639 -0.0167473 1.19671 -2.39607 -0.128601 
92.5191 99.7266 57.6661 0.022536 0.230349 -0.340438 0.305698 0.398022 -0.0184379 1.34208 6.48007 -2.40676 -4.46266 1.19438 0.000135227 -6.43088 4.14028 2.4967 -0.0919367 -1.90866 -0.346784 -2.40389 0.559672 0.617787 4.35302 1.61149 -0.000159746 10.8253 7.06495 -5.83482 0.58952 -0.113598 0.175025 -0.0605198 -0.0990584 -0.00342365 -0.361536 -0.0415821 0.153247 -1.34875 -0.761836 0.482658 0.0136214 2.97571 -0.0142294 1.23274 -2.46179 -0.0581737 
92.5342 99.7244 57.6874 0.0252091 0.208298 -0.241873 0.282355 0.325489 -0.0367481 1.24307 6.22309 -2.38801 -4.30322 1.13356 0.000135224 -6.37006 3.76894 2.4189 -0.0694132 -1.63865 -0.310569 -2.21625 0.509086 0.667914 4.32744 1.59978 -0.000159745 10.1261 6.74895 -5.57773 0.577236 -0.172034 0.0521002 -0.0510795 0.0212286 -0.00342364 -0.393529 -0.0681646 0.18859 -1.3561 -0.672954 0.416259 0.0202501 2.85601 -0.00464367 1.23265 -2.39707 -0.122144 
92.5671 99.7249 57.7146 0.0287107 0.168127 -0.174056 0.273461 0.265887 -0.0246983 1.15197 6.26808 -2.42013 -4.1428 1.07404 0.000135221 -6.29769 3.24001 2.37901 -0.0535173 -1.36948 -0.308125 -2.05569 0.542172 0.694849 4.2614 1.56963 -0.000159743 9.55296 6.43516 -5.44017 0.548977 -0.0136372 0.0190102 -0.0498899 -0.0687062 -0.00342365 -0.373 -0.0857842 0.157517 -1.3832 -0.616303 0.259824 0.016271 2.85808 0.00347632 1.26339 -2.39101 -0.0153407 
92.5809 99.7184 57.7224 0.0314939 0.131178 -0.101353 0.238468 0.246436 -0.00193144 1.12634 6.01378 -2.48733 -4.00427 1.02354 0.000135219 -6.04838 3.43978 2.03739 -0.0231657 -1.17608 -0.357004 -1.85397 0.5502 0.657441 4.09909 1.49612 -0.000159737 8.91326 6.05416 -5.04027 0.5484 -0.0274466 -0.0364333 -0.041869 -0.0209957 -0.00342364 -0.361478 -0.073745 0.149844 -1.37121 -0.61886 0.314698 -0.00672171 2.93322 0.00620389 1.31466 -2.43559 -0.141848 
92.6074 99.7108 57.7425 0.0333189 0.085066 -0.0364303 0.178054 0.197466 -0.00980773 1.09139 5.94393 -2.4786 -3.8287 0.961217 0.000135217 -5.85452 2.93397 1.66345 0.0101241 -0.939066 -0.345928 -1.56248 0.299114 0.620436 3.88337 1.40041 -0.00015973 7.29097 5.0416 -4.10989 0.516151 0.0521196 -0.0355949 -0.0302744 0.0309139 -0.00342364 -0.478584 -0.166309 0.0834011 -1.41355 -0.565543 0.164947 0.014521 2.95315 0.00657319 1.30127 -2.48127 -0.061695 
92.6353 99.7045 57.755 0.0344494 0.0562805 0.010286 0.124927 0.163478 -0.0114439 1.02559 5.53177 -2.37497 -3.59002 0.879472 0.000135214 -5.46784 2.66406 1.22593 0.0364873 -0.763369 -0.328961 -1.29653 0.22511 0.478892 3.52329 1.24505 -0.00015972 5.07102 3.38097 -2.43066 0.482453 0.160377 -0.053811 -0.0178573 -0.0604348 -0.00342365 -0.437724 -0.154241 0.0611522 -1.44226 -0.505922 0.146518 -0.00677334 2.90538 0.0060906 1.38502 -2.45681 -0.0794496 
92.6699 99.7025 57.7613 0.0340627 0.0335598 0.0332069 0.0894024 0.12203 -0.0825099 0.875079 4.82081 -1.97083 -3.1195 0.726942 0.000135209 -4.4369 2.35128 0.94449 0.024411 -0.597371 -0.215602 -1.0044 0.30672 0.424818 2.87183 0.977756 -0.000159706 3.08574 2.35032 -1.68982 0.462144 0.247098 -0.038306 -0.0135516 -0.131358 -0.00342365 -0.477163 -0.153034 0.0135034 -1.44755 -0.523597 0.022792 -0.0215353 2.99131 0.00626392 1.42325 -2.48616 0.0132725 
92.7064 99.7013 57.7648 0.0302913 0.01801 0.0469665 0.0482837 0.0595367 -0.0940131 0.71208 3.91436 -1.51575 -2.48653 0.540123 0.000135204 -3.12866 1.66101 0.476215 0.0135602 -0.408446 -0.126113 -0.750586 0.35124 0.318088 2.16675 0.708181 -0.000159695 1.77601 1.7301 -0.892006 0.434185 0.0480919 -0.0539185 0.00326854 0.152884 -0.00342366 -0.4442 -0.216312 0.0297232 -1.48821 -0.48455 0.0713653 0.0150967 2.96389 0.00737979 1.42541 -2.50081 -0.0620398 
92.7469 99.7001 57.7502 0.0196874 0.0194172 0.0436979 0.025297 0.0289365 -0.083088 0.484967 2.4306 -0.946271 -1.62993 0.320102 0.0001352 -1.72508 1.26925 0.312277 0.0250843 -0.253996 -0.0618491 -0.446808 0.154195 0.199295 1.39128 0.434238 -0.000159687 0.645828 0.935681 -0.508058 0.416081 0.148109 -0.0168293 0.00596596 0.0267531 -0.00342364 -0.420006 -0.183557 -0.0315171 -1.51545 -0.481691 -0.0391525 0.0146438 2.92304 0.00867303 1.52256 -2.42422 0.0534066 
